<?xml version="1.0" encoding="utf-8"?>
<!-- Generator: Adobe Illustrator 23.1.0, SVG Export Plug-In . SVG Version: 6.00 Build 0)  -->
<svg version="1.1" id="clear_x5F_day" xmlns="http://www.w3.org/2000/svg" xmlns:xlink="http://www.w3.org/1999/xlink" x="0px"
	 y="0px" viewBox="0 0 32 32" style="enable-background:new 0 0 32 32;" xml:space="preserve">
<style type="text/css">
	.st0{fill-rule:evenodd;clip-rule:evenodd;fill:#FFC444;}
</style>
<path id="clear_x5F_day_1_" class="st0" d="M16,5C9.92,5,5,9.92,5,16c0,6.08,4.92,11,11,11s11-4.92,11-11C27,9.92,22.08,5,16,5z
	 M16,3c0.55,0,1-0.45,1-1c0-0.55-0.45-1-1-1c-0.55,0-1,0.45-1,1C15,2.55,15.45,3,16,3z M16,29c-0.55,0-1,0.45-1,1c0,0.55,0.45,1,1,1
	c0.55,0,1-0.45,1-1C17,29.45,16.55,29,16,29z M30,15c-0.55,0-1,0.45-1,1c0,0.55,0.45,1,1,1c0.55,0,1-0.45,1-1
	C31,15.45,30.55,15,30,15z M2,15c-0.55,0-1,0.45-1,1c0,0.55,0.45,1,1,1c0.55,0,1-0.45,1-1C3,15.45,2.55,15,2,15z M26,7
	c0.55,0,0.99-0.45,0.99-1c0-0.55-0.44-1-0.99-1c-0.55,0-0.99,0.45-0.99,1C25.01,6.55,25.45,7,26,7z M6,24.99
	c-0.55,0-0.99,0.45-0.99,1c0,0.55,0.44,1,0.99,1c0.55,0,0.99-0.45,0.99-1C6.99,25.44,6.55,24.99,6,24.99z M25.99,24.99
	c-0.55,0-1,0.45-1,1c0,0.55,0.45,1,1,1c0.55,0,1-0.45,1-1C26.99,25.44,26.54,24.99,25.99,24.99z M6.01,7c0.55,0,1-0.45,1-1
	s-0.45-1-1-1s-1,0.45-1,1S5.46,7,6.01,7z"/>
</svg>
